<svg width="25" height="25" viewBox="0 0 25 25" fill="none" xmlns="http://www.w3.org/2000/svg">
<path d="M8.25788 12.0614C8.25788 9.85043 10.0493 8.05757 12.2596 8.05757C14.47 8.05757 16.2624 9.85043 16.2624 12.0614C16.2624 14.2725 14.47 16.0653 12.2596 16.0653C10.0493 16.0653 8.25788 14.2725 8.25788 12.0614ZM6.09409 12.0614C6.09409 15.4677 8.8544 18.2288 12.2596 18.2288C15.6649 18.2288 18.4252 15.4677 18.4252 12.0614C18.4252 8.65522 15.6649 5.89412 12.2596 5.89412C8.8544 5.89412 6.09409 8.65522 6.09409 12.0614ZM17.2284 5.64958C17.2283 5.93464 17.3127 6.21333 17.4709 6.45041C17.6292 6.68749 17.8541 6.87231 18.1173 6.9815C18.3806 7.0907 18.6703 7.11935 18.9498 7.06385C19.2293 7.00835 19.4861 6.87119 19.6877 6.6697C19.8893 6.46821 20.0266 6.21146 20.0823 5.9319C20.138 5.65234 20.1096 5.36254 20.0007 5.09913C19.8917 4.83573 19.7071 4.61056 19.4703 4.45209C19.2334 4.29363 18.9548 4.20899 18.6699 4.20887H18.6693C18.2873 4.20905 17.921 4.36088 17.6508 4.63101C17.3807 4.90114 17.2287 5.26748 17.2284 5.64958ZM7.40873 21.8378C6.23808 21.7845 5.60179 21.5895 5.17895 21.4247C4.61836 21.2064 4.21837 20.9464 3.79783 20.5263C3.37729 20.1062 3.11698 19.7065 2.89969 19.1457C2.73486 18.7229 2.53986 18.0863 2.48664 16.9153C2.42843 15.6493 2.41681 15.269 2.41681 12.0615C2.41681 8.85412 2.42939 8.47487 2.48664 7.20779C2.53996 6.0368 2.73639 5.40139 2.89969 4.97737C3.11794 4.41661 3.37787 4.01651 3.79783 3.59585C4.2178 3.17519 4.61739 2.9148 5.17895 2.69745C5.6016 2.53257 6.23808 2.33752 7.40873 2.28429C8.67439 2.22606 9.05458 2.21443 12.2596 2.21443C15.4647 2.21443 15.8453 2.22702 17.112 2.28429C18.2826 2.33761 18.9179 2.53411 19.3418 2.69745C19.9024 2.9148 20.3024 3.17577 20.7229 3.59585C21.1434 4.01594 21.4028 4.41661 21.621 4.97737C21.7859 5.40014 21.9809 6.0368 22.0341 7.20779C22.0923 8.47487 22.1039 8.85412 22.1039 12.0615C22.1039 15.269 22.0923 15.6482 22.0341 16.9153C21.9808 18.0863 21.7848 18.7228 21.621 19.1457C21.4028 19.7065 21.1429 20.1066 20.7229 20.5263C20.3029 20.946 19.9024 21.2064 19.3418 21.4247C18.9191 21.5896 18.2826 21.7846 17.112 21.8378C15.8463 21.8961 15.4661 21.9077 12.2596 21.9077C9.05314 21.9077 8.674 21.8961 7.40873 21.8378ZM7.30931 0.123518C6.03107 0.181746 5.15762 0.384486 4.39483 0.681389C3.60485 0.987998 2.9361 1.39934 2.26783 2.06675C1.59955 2.73416 1.18939 3.40416 0.882867 4.19437C0.586049 4.95786 0.383368 5.83108 0.325157 7.10969C0.265986 8.39032 0.252441 8.79974 0.252441 12.0614C0.252441 15.3232 0.265986 15.7326 0.325157 17.0132C0.383368 18.2919 0.586049 19.165 0.882867 19.9285C1.18939 20.7183 1.59965 21.389 2.26783 22.0562C2.936 22.7233 3.60485 23.134 4.39483 23.4415C5.15906 23.7384 6.03107 23.9412 7.30931 23.9994C8.59024 24.0576 8.99887 24.0721 12.2596 24.0721C15.5204 24.0721 15.9297 24.0586 17.21 23.9994C18.4883 23.9412 19.3612 23.7384 20.1245 23.4415C20.9139 23.134 21.5832 22.7236 22.2515 22.0562C22.9197 21.3887 23.329 20.7183 23.6364 19.9285C23.9332 19.165 24.1369 18.2918 24.1941 17.0132C24.2523 15.7316 24.2659 15.3232 24.2659 12.0614C24.2659 8.79974 24.2523 8.39032 24.1941 7.10969C24.1359 5.83099 23.9332 4.95738 23.6364 4.19437C23.329 3.40464 22.9187 2.73521 22.2515 2.06675C21.5842 1.39828 20.914 0.987998 20.1254 0.681389C19.3612 0.384486 18.4882 0.180785 17.2109 0.123518C15.9307 0.0652901 15.5214 0.0507812 12.2606 0.0507812C8.99983 0.0507812 8.59024 0.0643293 7.30931 0.123518Z" fill="white"/>
</svg>
