<svg width="13" height="12" viewBox="0 0 13 12" fill="none" xmlns="http://www.w3.org/2000/svg">
<path fill-rule="evenodd" clip-rule="evenodd" d="M10.7394 7.64045C10.5049 7.45164 10.2304 7.31875 9.93669 7.25189C9.64298 7.18504 9.33787 7.18599 9.04459 7.25466C8.60393 7.4374 8.3192 8.12775 8.03447 8.47292C7.97443 8.55566 7.8862 8.6137 7.78635 8.63613C7.6865 8.65855 7.58188 8.64384 7.49213 8.59474C5.87887 7.96393 4.52663 6.80713 3.65504 5.31223C3.58069 5.21894 3.54551 5.1005 3.55689 4.98183C3.56827 4.86316 3.62533 4.75354 3.71605 4.67603C4.03362 4.36217 4.26678 3.97343 4.39398 3.54576C4.42222 3.07403 4.31397 2.60415 4.08213 2.19214C3.9029 1.61453 3.5618 1.1002 3.09913 0.709934C2.8605 0.602785 2.59591 0.566859 2.33728 0.606489C2.07866 0.64612 1.83704 0.759614 1.64158 0.93328C1.30225 1.22555 1.03292 1.5901 0.85341 2.00006C0.673901 2.41002 0.58879 2.85496 0.604345 3.30211C0.605392 3.55321 0.637267 3.80324 0.699255 4.0466C0.856675 4.63129 1.09876 5.18991 1.41786 5.70477C1.64809 6.09917 1.89928 6.48098 2.17037 6.84858C3.05137 8.05599 4.15881 9.08115 5.43121 9.86714C6.06972 10.2666 6.75214 10.5913 7.46501 10.835C8.20552 11.1701 9.02313 11.2987 9.83099 11.2072C10.2913 11.1377 10.7274 10.9562 11.1009 10.6789C11.4745 10.4015 11.7741 10.0368 11.9733 9.61672C12.0903 9.36296 12.1258 9.07927 12.0749 8.80455C11.9529 8.2428 11.2004 7.91117 10.7394 7.64045Z" fill="white"/>
</svg>
