<svg width="25" height="25" viewBox="0 0 25 25" fill="none" xmlns="http://www.w3.org/2000/svg">
<path d="M0.252441 24.1112L1.97439 17.7086C0.585681 15.2144 0.144475 12.304 0.731732 9.5113C1.31899 6.71861 2.89531 4.23101 5.17145 2.50497C7.44759 0.778936 10.2709 -0.0697529 13.1232 0.114639C15.9755 0.299032 18.6656 1.50414 20.6997 3.50882C22.7339 5.5135 23.9757 8.18328 24.1973 11.0283C24.4189 13.8732 23.6054 16.7026 21.9061 18.9971C20.2068 21.2916 17.7357 22.8974 14.9462 23.5197C12.1567 24.1421 9.23594 23.7393 6.7199 22.3853L0.252441 24.1112ZM7.03175 19.9894L7.43173 20.2263C9.25415 21.3047 11.3827 21.751 13.4857 21.4955C15.5887 21.2401 17.548 20.2974 19.0582 18.8142C20.5685 17.331 21.5449 15.3907 21.8353 13.2957C22.1257 11.2007 21.7137 9.06859 20.6636 7.23171C19.6135 5.39483 17.9843 3.95634 16.0298 3.14039C14.0753 2.32445 11.9053 2.17689 9.85808 2.72072C7.81081 3.26454 6.00124 4.4692 4.71136 6.14696C3.42148 7.82472 2.72374 9.88134 2.72689 11.9963C2.72518 13.75 3.21097 15.4697 4.13021 16.9641L4.38104 17.3769L3.41838 20.9505L7.03175 19.9894Z" fill="white"/>
</svg>
