<svg width="30" height="18" viewBox="0 0 30 18" fill="none" xmlns="http://www.w3.org/2000/svg">
<path fill-rule="evenodd" clip-rule="evenodd" d="M29.2581 2.08859C29.461 1.45405 29.2581 0.987793 28.2927 0.987793H25.1003C24.2886 0.987793 23.9144 1.39057 23.7115 1.83472C23.7115 1.83472 22.088 5.54672 19.7882 7.9579C19.0442 8.65586 18.7059 8.87793 18.3001 8.87793C18.0972 8.87793 17.8034 8.65586 17.8034 8.02138V2.08859C17.8034 1.32715 17.5679 0.987793 16.8914 0.987793H11.8748C11.3675 0.987793 11.0625 1.3412 11.0625 1.67613C11.0625 2.39796 12.2123 2.56443 12.3308 4.59494V9.00489C12.3308 9.97176 12.1447 10.1471 11.7388 10.1471C10.6566 10.1471 8.02408 6.41848 6.46274 2.15202C6.15676 1.32277 5.84986 0.987793 5.03398 0.987793H1.84161C0.929501 0.987793 0.74707 1.39057 0.74707 1.83472C0.74707 2.62791 1.82936 6.56197 5.78637 11.7651C8.42436 15.3184 12.1411 17.2445 15.5232 17.2445C17.5524 17.2445 17.8035 16.8167 17.8035 16.0798V13.3942C17.8035 12.5386 17.9957 12.3679 18.6383 12.3679C19.1118 12.3679 19.9235 12.5899 21.8175 14.3031C23.982 16.3336 24.3389 17.2445 25.5564 17.2445H28.7488C29.6609 17.2445 30.1169 16.8167 29.8538 15.9724C29.5659 15.131 28.5325 13.9102 27.1612 12.463C26.4171 11.6382 25.301 10.7499 24.9628 10.3056C24.4893 9.7346 24.6246 9.48073 24.9628 8.97316C24.9628 8.97316 28.8523 3.8335 29.2581 2.08859Z" fill="white"/>
</svg>
