<svg width="23" height="20" viewBox="0 0 23 20" fill="none" xmlns="http://www.w3.org/2000/svg">
<path d="M1.60613 9.1496C1.60613 9.1496 11.3716 5.03655 14.7584 3.58825C16.0567 3.00898 20.4596 1.15514 20.4596 1.15514C20.4596 1.15514 22.4918 0.344159 22.3224 2.31377C22.2659 3.12483 21.8144 5.96339 21.3628 9.03374C20.6854 13.3786 19.9516 18.1289 19.9516 18.1289C19.9516 18.1289 19.8387 19.4613 18.8791 19.693C17.9195 19.9247 16.3389 18.882 16.0567 18.6502C15.8309 18.4765 11.8231 15.8696 10.3555 14.5951C9.96036 14.2475 9.50881 13.5524 10.4119 12.7413C12.4441 10.8296 14.8713 8.45447 16.3389 6.94828C17.0163 6.25307 17.6937 4.63102 14.8713 6.60063C10.8635 9.43927 6.91221 12.1041 6.91221 12.1041C6.91221 12.1041 6.00902 12.6834 4.31561 12.162C2.62213 11.6407 0.646458 10.9455 0.646458 10.9455C0.646458 10.9455 -0.708207 10.0765 1.60613 9.1496Z" fill="white"/>
</svg>
